<svg width="48" height="48" viewBox="0 0 48 48" fill="none" xmlns="http://www.w3.org/2000/svg">
<rect width="48" height="48" rx="24" fill="#9EA7BF"/>
<path d="M24.8 17.48L23.48 20.54C22.32 23.2467 21.4067 25.4133 20.74 27.04C20.0733 28.6667 19.46 30.32 18.9 32H12.92C12.3733 30.3467 11.7667 28.7133 11.1 27.1C10.4467 25.4733 9.56667 23.3933 8.46 20.86C8.27333 20.4333 7.78667 19.3067 7 17.48H12.56C12.96 18.7733 13.5533 20.4333 14.34 22.46C15.0333 24.2467 15.5933 25.7933 16.02 27.1C16.3 26.18 16.6333 25.2 17.02 24.16C17.42 23.1067 17.66 22.4667 17.74 22.24C18.5133 20.2 19.08 18.6133 19.44 17.48H24.8Z" fill="white"/>
<path d="M37.5864 24.78C40.6264 24.78 42.1464 25.7467 42.1464 27.68C42.1464 28.5867 41.9397 29.36 41.5264 30C41.1131 30.6267 40.3731 31.12 39.3064 31.48C38.2397 31.8267 36.7597 32 34.8664 32H25.8664C25.9731 29.4133 26.0264 26.9933 26.0264 24.74C26.0264 22.4867 25.9731 20.0667 25.8664 17.48H30.5664V17.5H34.8264C36.4797 17.5 37.7797 17.64 38.7264 17.92C39.6864 18.1867 40.3597 18.58 40.7464 19.1C41.1464 19.62 41.3464 20.28 41.3464 21.08C41.3464 21.8933 41.0597 22.62 40.4864 23.26C39.9264 23.8867 38.9597 24.3933 37.5864 24.78ZM30.5664 21.14V23H34.4064C35.2331 23 35.8064 22.9267 36.1264 22.78C36.4597 22.6333 36.6264 22.3667 36.6264 21.98C36.6264 21.6733 36.4531 21.46 36.1064 21.34C35.7731 21.2067 35.2064 21.14 34.4064 21.14H30.5664ZM34.4064 28.34C35.0997 28.34 35.6264 28.3133 35.9864 28.26C36.3597 28.1933 36.6264 28.0867 36.7864 27.94C36.9464 27.78 37.0264 27.5667 37.0264 27.3C37.0264 26.9533 36.8331 26.7067 36.4464 26.56C36.0731 26.4 35.3931 26.32 34.4064 26.32H30.5664V28.34H34.4064Z" fill="black"/>
</svg>
